<?xml version="1.0" encoding="UTF-8" standalone="no"?>
<svg
   xmlns:dc="http://purl.org/dc/elements/1.1/"
   xmlns:cc="http://creativecommons.org/ns#"
   xmlns:rdf="http://www.w3.org/1999/02/22-rdf-syntax-ns#"
   xmlns:svg="http://www.w3.org/2000/svg"
   xmlns="http://www.w3.org/2000/svg"
   xmlns:sodipodi="http://sodipodi.sourceforge.net/DTD/sodipodi-0.dtd"
   xmlns:inkscape="http://www.inkscape.org/namespaces/inkscape"
   inkscape:version="1.0 (4035a4fb49, 2020-05-01)"
   sodipodi:docname="clavier-braillerap.svg"
   id="svg7"
   version="1.1"
   width="481.90mm"
   viewBox="0.0 0.0 481.90 255.30"
   height="255.30mm">
  <defs
     id="defs7" />
  <sodipodi:namedview
     inkscape:guide-bbox="true"
     showguides="true"
     showgrid="false"
     inkscape:document-rotation="0"
     inkscape:current-layer="svg7"
     inkscape:window-maximized="1"
     inkscape:window-y="-8"
     inkscape:window-x="-8"
     inkscape:window-height="1017"
     inkscape:window-width="1920"
     inkscape:cy="547.31891"
     inkscape:cx="984.351"
     inkscape:zoom="0.60750687"
     inkscape:document-units="mm"
     inkscape:deskcolor="#d1d1d1"
     inkscape:pagecheckerboard="0"
     inkscape:pageopacity="0.0"
     inkscape:showpageshadow="2"
     borderopacity="0.25"
     bordercolor="#000000"
     pagecolor="#ffffff"
     id="namedview7">
    <sodipodi:guide
       id="guide851"
       orientation="0,-1"
       position="76.216563,274.46302" />
  </sodipodi:namedview>
  <!--
ClosedBox - Fully closed box


This box is more of a building block than a finished item.
Use a vector graphics program (like Inkscape) to add holes or adjust the base
plate.

See BasedBox for variant with a base.


Created with Boxes.py (https://boxes.hackerspace-bamberg.de/)
Creation date: 2026-05-27 08:53:01
Command line (remove spaces between dashes): boxes ClosedBox - -x=230.0 - -y=120.0 - -h=50.0 - -spacing=0.5
Url: https://boxes.hackerspace-bamberg.de/ClosedBox?FingerJoint_style=rectangular&FingerJoint_surroundingspaces=2.0&FingerJoint_bottom_lip=0.0&FingerJoint_edge_width=1.0&FingerJoint_extra_length=0.0&FingerJoint_finger=2.0&FingerJoint_play=0.0&FingerJoint_space=2.0&FingerJoint_width=1.0&x=230.0&y=120.0&h=50.0&outside=0&outside=1&thickness=3.0&burn=0.1&format=svg&labels=0&labels=1&reference=100.0&tabs=0.0&qr_code=0&inner_corners=loop&spacing=0.5&debug=0&language=fr&render=2
Url short: https://boxes.hackerspace-bamberg.de/ClosedBox?x=230.0&y=120.0&h=50.0&spacing=0.5
SettingsUrl: https://boxes.hackerspace-bamberg.de/ClosedBox?FingerJoint_style=rectangular&FingerJoint_surroundingspaces=2.0&FingerJoint_bottom_lip=0.0&FingerJoint_edge_width=1.0&FingerJoint_extra_length=0.0&FingerJoint_finger=2.0&FingerJoint_play=0.0&FingerJoint_space=2.0&FingerJoint_width=1.0&x=230.0&y=120.0&h=50.0&outside=0&outside=1&thickness=3.0&burn=0.1&format=svg&labels=0&labels=1&reference=100.0&tabs=0.0&qr_code=0&inner_corners=loop&spacing=0.5&debug=0&language=fr&render=2
SettingsUrl short: https://boxes.hackerspace-bamberg.de/ClosedBox?x=230.0&y=120.0&h=50.0&spacing=0.5
-->
  <title
     id="title1">ClosedBox</title>
  <metadata
     id="metadata1">
    <rdf:RDF>
      <cc:Work>
        <dc:title>Box - ClosedBox</dc:title>
        <dc:date>2026-05-27 08:53:01</dc:date>
        <dc:source>https://boxes.hackerspace-bamberg.de/ClosedBox?FingerJoint_style=rectangular&amp;FingerJoint_surroundingspaces=2.0&amp;FingerJoint_bottom_lip=0.0&amp;FingerJoint_edge_width=1.0&amp;FingerJoint_extra_length=0.0&amp;FingerJoint_finger=2.0&amp;FingerJoint_play=0.0&amp;FingerJoint_space=2.0&amp;FingerJoint_width=1.0&amp;x=230.0&amp;y=120.0&amp;h=50.0&amp;outside=0&amp;outside=1&amp;thickness=3.0&amp;burn=0.1&amp;format=svg&amp;labels=0&amp;labels=1&amp;reference=100.0&amp;tabs=0.0&amp;qr_code=0&amp;inner_corners=loop&amp;spacing=0.5&amp;debug=0&amp;language=fr&amp;render=2</dc:source>
        <dc:source>https://boxes.hackerspace-bamberg.de/ClosedBox?x=230.0&amp;y=120.0&amp;h=50.0&amp;spacing=0.5</dc:source>
        <dc:description>Fully closed box

This box is more of a building block than a finished item.
Use a vector graphics program (like Inkscape) to add holes or adjust the base
plate.

See BasedBox for variant with a base.

Created with Boxes.py (https://boxes.hackerspace-bamberg.de/)
Command line: boxes ClosedBox --FingerJoint_style=rectangular --FingerJoint_surroundingspaces=2.0 --FingerJoint_bottom_lip=0.0 --FingerJoint_edge_width=1.0 --FingerJoint_extra_length=0.0 --FingerJoint_finger=2.0 --FingerJoint_play=0.0 --FingerJoint_space=2.0 --FingerJoint_width=1.0 --x=230.0 --y=120.0 --h=50.0 --outside=0 --outside=1 --thickness=3.0 --burn=0.1 --format=svg --labels=0 --labels=1 --reference=100.0 --tabs=0.0 --qr_code=0 --inner_corners=loop --spacing=0.5 --debug=0
Command line short: boxes ClosedBox --x=230.0 --y=120.0 --h=50.0 --spacing=0.5
Url: https://boxes.hackerspace-bamberg.de/ClosedBox?FingerJoint_style=rectangular&amp;FingerJoint_surroundingspaces=2.0&amp;FingerJoint_bottom_lip=0.0&amp;FingerJoint_edge_width=1.0&amp;FingerJoint_extra_length=0.0&amp;FingerJoint_finger=2.0&amp;FingerJoint_play=0.0&amp;FingerJoint_space=2.0&amp;FingerJoint_width=1.0&amp;x=230.0&amp;y=120.0&amp;h=50.0&amp;outside=0&amp;outside=1&amp;thickness=3.0&amp;burn=0.1&amp;format=svg&amp;labels=0&amp;labels=1&amp;reference=100.0&amp;tabs=0.0&amp;qr_code=0&amp;inner_corners=loop&amp;spacing=0.5&amp;debug=0&amp;language=fr&amp;render=2
Url short: https://boxes.hackerspace-bamberg.de/ClosedBox?x=230.0&amp;y=120.0&amp;h=50.0&amp;spacing=0.5
SettingsUrl: https://boxes.hackerspace-bamberg.de/ClosedBox?FingerJoint_style=rectangular&amp;FingerJoint_surroundingspaces=2.0&amp;FingerJoint_bottom_lip=0.0&amp;FingerJoint_edge_width=1.0&amp;FingerJoint_extra_length=0.0&amp;FingerJoint_finger=2.0&amp;FingerJoint_play=0.0&amp;FingerJoint_space=2.0&amp;FingerJoint_width=1.0&amp;x=230.0&amp;y=120.0&amp;h=50.0&amp;outside=0&amp;outside=1&amp;thickness=3.0&amp;burn=0.1&amp;format=svg&amp;labels=0&amp;labels=1&amp;reference=100.0&amp;tabs=0.0&amp;qr_code=0&amp;inner_corners=loop&amp;spacing=0.5&amp;debug=0&amp;language=fr&amp;render=2
SettingsUrl short: https://boxes.hackerspace-bamberg.de/ClosedBox?x=230.0&amp;y=120.0&amp;h=50.0&amp;spacing=0.5
</dc:description>
        <dc:format>image/svg+xml</dc:format>
        <dc:type
           rdf:resource="http://purl.org/dc/dcmitype/StillImage" />
      </cc:Work>
    </rdf:RDF>
  </metadata>
  <g
     style="fill:none;stroke-linecap:round;stroke-linejoin:round;stroke:#ff0000;stroke-opacity:1"
     id="p-1">
    <path
       style="stroke:#ff0000;stroke-opacity:1"
       id="path2"
       stroke-width="0.20"
       stroke="rgb(0,0,0)"
       d="M 13.100 233.600 H 20.100 C 20.155 233.600 20.200 233.555 20.200 233.500 V 230.600 C 20.200 230.500 20.100 230.600 20.200 230.600 H 26.000 C 26.100 230.600 26.000 230.500 26.000 230.600 V 233.500 C 26.000 233.555 26.045 233.600 26.100 233.600 H 32.100 C 32.155 233.600 32.200 233.555 32.200 233.500 V 230.600 C 32.200 230.500 32.100 230.600 32.200 230.600 H 38.000 C 38.100 230.600 38.000 230.500 38.000 230.600 V 233.500 C 38.000 233.555 38.045 233.600 38.100 233.600 H 44.100 C 44.155 233.600 44.200 233.555 44.200 233.500 V 230.600 C 44.200 230.500 44.100 230.600 44.200 230.600 H 50.000 C 50.100 230.600 50.000 230.500 50.000 230.600 V 233.500 C 50.000 233.555 50.045 233.600 50.100 233.600 H 56.100 C 56.155 233.600 56.200 233.555 56.200 233.500 V 230.600 C 56.200 230.500 56.100 230.600 56.200 230.600 H 62.000 C 62.100 230.600 62.000 230.500 62.000 230.600 V 233.500 C 62.000 233.555 62.045 233.600 62.100 233.600 H 68.100 C 68.155 233.600 68.200 233.555 68.200 233.500 V 230.600 C 68.200 230.500 68.100 230.600 68.200 230.600 H 74.000 C 74.100 230.600 74.000 230.500 74.000 230.600 V 233.500 C 74.000 233.555 74.045 233.600 74.100 233.600 H 80.100 C 80.155 233.600 80.200 233.555 80.200 233.500 V 230.600 C 80.200 230.500 80.100 230.600 80.200 230.600 H 86.000 C 86.100 230.600 86.000 230.500 86.000 230.600 V 233.500 C 86.000 233.555 86.045 233.600 86.100 233.600 H 92.100 C 92.155 233.600 92.200 233.555 92.200 233.500 V 230.600 C 92.200 230.500 92.100 230.600 92.200 230.600 H 98.000 C 98.100 230.600 98.000 230.500 98.000 230.600 V 233.500 C 98.000 233.555 98.045 233.600 98.100 233.600 H 104.100 C 104.155 233.600 104.200 233.555 104.200 233.500 V 230.600 C 104.200 230.500 104.100 230.600 104.200 230.600 H 110.000 C 110.100 230.600 110.000 230.500 110.000 230.600 V 233.500 C 110.000 233.555 110.045 233.600 110.100 233.600 H 116.100 C 116.155 233.600 116.200 233.555 116.200 233.500 V 230.600 C 116.200 230.500 116.100 230.600 116.200 230.600 H 122.000 C 122.100 230.600 122.000 230.500 122.000 230.600 V 233.500 C 122.000 233.555 122.045 233.600 122.100 233.600 H 128.100 C 128.155 233.600 128.200 233.555 128.200 233.500 V 230.600 C 128.200 230.500 128.100 230.600 128.200 230.600 H 134.000 C 134.100 230.600 134.000 230.500 134.000 230.600 V 233.500 C 134.000 233.555 134.045 233.600 134.100 233.600 H 140.100 C 140.155 233.600 140.200 233.555 140.200 233.500 V 230.600 C 140.200 230.500 140.100 230.600 140.200 230.600 H 146.000 C 146.100 230.600 146.000 230.500 146.000 230.600 V 233.500 C 146.000 233.555 146.045 233.600 146.100 233.600 H 152.100 C 152.155 233.600 152.200 233.555 152.200 233.500 V 230.600 C 152.200 230.500 152.100 230.600 152.200 230.600 H 158.000 C 158.100 230.600 158.000 230.500 158.000 230.600 V 233.500 C 158.000 233.555 158.045 233.600 158.100 233.600 H 164.100 C 164.155 233.600 164.200 233.555 164.200 233.500 V 230.600 C 164.200 230.500 164.100 230.600 164.200 230.600 H 170.000 C 170.100 230.600 170.000 230.500 170.000 230.600 V 233.500 C 170.000 233.555 170.045 233.600 170.100 233.600 H 176.100 C 176.155 233.600 176.200 233.555 176.200 233.500 V 230.600 C 176.200 230.500 176.100 230.600 176.200 230.600 H 182.000 C 182.100 230.600 182.000 230.500 182.000 230.600 V 233.500 C 182.000 233.555 182.045 233.600 182.100 233.600 H 188.100 C 188.155 233.600 188.200 233.555 188.200 233.500 V 230.600 C 188.200 230.500 188.100 230.600 188.200 230.600 H 194.000 C 194.100 230.600 194.000 230.500 194.000 230.600 V 233.500 C 194.000 233.555 194.045 233.600 194.100 233.600 H 200.100 C 200.155 233.600 200.200 233.555 200.200 233.500 V 230.600 C 200.200 230.500 200.100 230.600 200.200 230.600 H 206.000 C 206.100 230.600 206.000 230.500 206.000 230.600 V 233.500 C 206.000 233.555 206.045 233.600 206.100 233.600 H 212.100 C 212.155 233.600 212.200 233.555 212.200 233.500 V 230.600 C 212.200 230.500 212.100 230.600 212.200 230.600 H 218.000 C 218.100 230.600 218.000 230.500 218.000 230.600 V 233.500 C 218.000 233.555 218.045 233.600 218.100 233.600 H 224.100 C 224.155 233.600 224.200 233.555 224.200 233.500 V 230.600 C 224.200 230.500 224.100 230.600 224.200 230.600 H 230.000 C 230.100 230.600 230.000 230.500 230.000 230.600 V 233.500 C 230.000 233.555 230.045 233.600 230.100 233.600 H 237.100 H 240.100 C 240.155 233.600 240.200 233.555 240.200 233.500 V 230.500 V 223.500 C 240.200 223.445 240.155 223.400 240.100 223.400 H 237.200 C 237.100 223.400 237.200 223.500 237.200 223.400 V 217.600 C 237.200 217.500 237.100 217.600 237.200 217.600 H 240.100 C 240.155 217.600 240.200 217.555 240.200 217.500 V 211.500 C 240.200 211.445 240.155 211.400 240.100 211.400 H 237.200 C 237.100 211.400 237.200 211.500 237.200 211.400 V 205.600 C 237.200 205.500 237.100 205.600 237.200 205.600 H 240.100 C 240.155 205.600 240.200 205.555 240.200 205.500 V 199.500 C 240.200 199.445 240.155 199.400 240.100 199.400 H 237.200 C 237.100 199.400 237.200 199.500 237.200 199.400 V 193.600 C 237.200 193.500 237.100 193.600 237.200 193.600 H 240.100 C 240.155 193.600 240.200 193.555 240.200 193.500 V 186.500 V 183.500 C 240.200 183.445 240.155 183.400 240.100 183.400 H 237.100 H 230.100 C 230.045 183.400 230.000 183.445 230.000 183.500 V 186.400 C 230.000 186.500 230.100 186.400 230.000 186.400 H 224.200 C 224.100 186.400 224.200 186.500 224.200 186.400 V 183.500 C 224.200 183.445 224.155 183.400 224.100 183.400 H 218.100 C 218.045 183.400 218.000 183.445 218.000 183.500 V 186.400 C 218.000 186.500 218.100 186.400 218.000 186.400 H 212.200 C 212.100 186.400 212.200 186.500 212.200 186.400 V 183.500 C 212.200 183.445 212.155 183.400 212.100 183.400 H 206.100 C 206.045 183.400 206.000 183.445 206.000 183.500 V 186.400 C 206.000 186.500 206.100 186.400 206.000 186.400 H 200.200 C 200.100 186.400 200.200 186.500 200.200 186.400 V 183.500 C 200.200 183.445 200.155 183.400 200.100 183.400 H 194.100 C 194.045 183.400 194.000 183.445 194.000 183.500 V 186.400 C 194.000 186.500 194.100 186.400 194.000 186.400 H 188.200 C 188.100 186.400 188.200 186.500 188.200 186.400 V 183.500 C 188.200 183.445 188.155 183.400 188.100 183.400 H 182.100 C 182.045 183.400 182.000 183.445 182.000 183.500 V 186.400 C 182.000 186.500 182.100 186.400 182.000 186.400 H 176.200 C 176.100 186.400 176.200 186.500 176.200 186.400 V 183.500 C 176.200 183.445 176.155 183.400 176.100 183.400 H 170.100 C 170.045 183.400 170.000 183.445 170.000 183.500 V 186.400 C 170.000 186.500 170.100 186.400 170.000 186.400 H 164.200 C 164.100 186.400 164.200 186.500 164.200 186.400 V 183.500 C 164.200 183.445 164.155 183.400 164.100 183.400 H 158.100 C 158.045 183.400 158.000 183.445 158.000 183.500 V 186.400 C 158.000 186.500 158.100 186.400 158.000 186.400 H 152.200 C 152.100 186.400 152.200 186.500 152.200 186.400 V 183.500 C 152.200 183.445 152.155 183.400 152.100 183.400 H 146.100 C 146.045 183.400 146.000 183.445 146.000 183.500 V 186.400 C 146.000 186.500 146.100 186.400 146.000 186.400 H 140.200 C 140.100 186.400 140.200 186.500 140.200 186.400 V 183.500 C 140.200 183.445 140.155 183.400 140.100 183.400 H 134.100 C 134.045 183.400 134.000 183.445 134.000 183.500 V 186.400 C 134.000 186.500 134.100 186.400 134.000 186.400 H 128.200 C 128.100 186.400 128.200 186.500 128.200 186.400 V 183.500 C 128.200 183.445 128.155 183.400 128.100 183.400 H 122.100 C 122.045 183.400 122.000 183.445 122.000 183.500 V 186.400 C 122.000 186.500 122.100 186.400 122.000 186.400 H 116.200 C 116.100 186.400 116.200 186.500 116.200 186.400 V 183.500 C 116.200 183.445 116.155 183.400 116.100 183.400 H 110.100 C 110.045 183.400 110.000 183.445 110.000 183.500 V 186.400 C 110.000 186.500 110.100 186.400 110.000 186.400 H 104.200 C 104.100 186.400 104.200 186.500 104.200 186.400 V 183.500 C 104.200 183.445 104.155 183.400 104.100 183.400 H 98.100 C 98.045 183.400 98.000 183.445 98.000 183.500 V 186.400 C 98.000 186.500 98.100 186.400 98.000 186.400 H 92.200 C 92.100 186.400 92.200 186.500 92.200 186.400 V 183.500 C 92.200 183.445 92.155 183.400 92.100 183.400 H 86.100 C 86.045 183.400 86.000 183.445 86.000 183.500 V 186.400 C 86.000 186.500 86.100 186.400 86.000 186.400 H 80.200 C 80.100 186.400 80.200 186.500 80.200 186.400 V 183.500 C 80.200 183.445 80.155 183.400 80.100 183.400 H 74.100 C 74.045 183.400 74.000 183.445 74.000 183.500 V 186.400 C 74.000 186.500 74.100 186.400 74.000 186.400 H 68.200 C 68.100 186.400 68.200 186.500 68.200 186.400 V 183.500 C 68.200 183.445 68.155 183.400 68.100 183.400 H 62.100 C 62.045 183.400 62.000 183.445 62.000 183.500 V 186.400 C 62.000 186.500 62.100 186.400 62.000 186.400 H 56.200 C 56.100 186.400 56.200 186.500 56.200 186.400 V 183.500 C 56.200 183.445 56.155 183.400 56.100 183.400 H 50.100 C 50.045 183.400 50.000 183.445 50.000 183.500 V 186.400 C 50.000 186.500 50.100 186.400 50.000 186.400 H 44.200 C 44.100 186.400 44.200 186.500 44.200 186.400 V 183.500 C 44.200 183.445 44.155 183.400 44.100 183.400 H 38.100 C 38.045 183.400 38.000 183.445 38.000 183.500 V 186.400 C 38.000 186.500 38.100 186.400 38.000 186.400 H 32.200 C 32.100 186.400 32.200 186.500 32.200 186.400 V 183.500 C 32.200 183.445 32.155 183.400 32.100 183.400 H 26.100 C 26.045 183.400 26.000 183.445 26.000 183.500 V 186.400 C 26.000 186.500 26.100 186.400 26.000 186.400 H 20.200 C 20.100 186.400 20.200 186.500 20.200 186.400 V 183.500 C 20.200 183.445 20.155 183.400 20.100 183.400 H 13.100 H 10.100 C 10.045 183.400 10.000 183.445 10.000 183.500 V 186.500 V 193.500 C 10.000 193.555 10.045 193.600 10.100 193.600 H 13.000 C 13.100 193.600 13.000 193.500 13.000 193.600 V 199.400 C 13.000 199.500 13.100 199.400 13.000 199.400 H 10.100 C 10.045 199.400 10.000 199.445 10.000 199.500 V 205.500 C 10.000 205.555 10.045 205.600 10.100 205.600 H 13.000 C 13.100 205.600 13.000 205.500 13.000 205.600 V 211.400 C 13.000 211.500 13.100 211.400 13.000 211.400 H 10.100 C 10.045 211.400 10.000 211.445 10.000 211.500 V 217.500 C 10.000 217.555 10.045 217.600 10.100 217.600 H 13.000 C 13.100 217.600 13.000 217.500 13.000 217.600 V 223.400 C 13.000 223.500 13.100 223.400 13.000 223.400 H 10.100 C 10.045 223.400 10.000 223.445 10.000 223.500 V 230.500 V 233.500 C 10.000 233.555 10.045 233.600 10.100 233.600 H 13.100 Z" />
  </g>
  <g
     style="fill:none;stroke-linecap:round;stroke-linejoin:round;stroke:#ff0000;stroke-opacity:1"
     id="p-2">
    <path
       style="stroke:#ff0000;stroke-opacity:1"
       id="path3"
       stroke-width="0.20"
       stroke="rgb(0,0,0)"
       d="M 244.800 233.600 H 250.800 C 250.855 233.600 250.900 233.555 250.900 233.500 V 230.600 C 250.900 230.500 250.800 230.600 250.900 230.600 H 256.700 C 256.800 230.600 256.700 230.500 256.700 230.600 V 233.500 C 256.700 233.555 256.745 233.600 256.800 233.600 H 262.800 C 262.855 233.600 262.900 233.555 262.900 233.500 V 230.600 C 262.900 230.500 262.800 230.600 262.900 230.600 H 268.700 C 268.800 230.600 268.700 230.500 268.700 230.600 V 233.500 C 268.700 233.555 268.745 233.600 268.800 233.600 H 274.800 C 274.855 233.600 274.900 233.555 274.900 233.500 V 230.600 C 274.900 230.500 274.800 230.600 274.900 230.600 H 280.700 C 280.800 230.600 280.700 230.500 280.700 230.600 V 233.500 C 280.700 233.555 280.745 233.600 280.800 233.600 H 286.800 C 286.855 233.600 286.900 233.555 286.900 233.500 V 230.600 C 286.900 230.500 286.800 230.600 286.900 230.600 H 292.700 C 292.800 230.600 292.700 230.500 292.700 230.600 V 233.500 C 292.700 233.555 292.745 233.600 292.800 233.600 H 298.800 C 298.855 233.600 298.900 233.555 298.900 233.500 V 230.600 C 298.900 230.500 298.800 230.600 298.900 230.600 H 304.700 C 304.800 230.600 304.700 230.500 304.700 230.600 V 233.500 C 304.700 233.555 304.745 233.600 304.800 233.600 H 310.800 C 310.855 233.600 310.900 233.555 310.900 233.500 V 230.600 C 310.900 230.500 310.800 230.600 310.900 230.600 H 316.700 C 316.800 230.600 316.700 230.500 316.700 230.600 V 233.500 C 316.700 233.555 316.745 233.600 316.800 233.600 H 322.800 C 322.855 233.600 322.900 233.555 322.900 233.500 V 230.600 C 322.900 230.500 322.800 230.600 322.900 230.600 H 328.700 C 328.800 230.600 328.700 230.500 328.700 230.600 V 233.500 C 328.700 233.555 328.745 233.600 328.800 233.600 H 334.800 C 334.855 233.600 334.900 233.555 334.900 233.500 V 230.600 C 334.900 230.500 334.800 230.600 334.900 230.600 H 340.700 C 340.800 230.600 340.700 230.500 340.700 230.600 V 233.500 C 340.700 233.555 340.745 233.600 340.800 233.600 H 346.800 C 346.855 233.600 346.900 233.555 346.900 233.500 V 230.600 C 346.900 230.500 346.800 230.600 346.900 230.600 H 352.700 C 352.800 230.600 352.700 230.500 352.700 230.600 V 233.500 C 352.700 233.555 352.745 233.600 352.800 233.600 H 358.800 C 358.855 233.600 358.900 233.555 358.900 233.500 V 230.500 V 223.600 C 358.900 223.500 358.800 223.600 358.900 223.600 H 361.800 C 361.855 223.600 361.900 223.555 361.900 223.500 V 217.500 C 361.900 217.445 361.855 217.400 361.800 217.400 H 358.900 C 358.800 217.400 358.900 217.500 358.900 217.400 V 211.600 C 358.900 211.500 358.800 211.600 358.900 211.600 H 361.800 C 361.855 211.600 361.900 211.555 361.900 211.500 V 205.500 C 361.900 205.445 361.855 205.400 361.800 205.400 H 358.900 C 358.800 205.400 358.900 205.500 358.900 205.400 V 199.600 C 358.900 199.500 358.800 199.600 358.900 199.600 H 361.800 C 361.855 199.600 361.900 199.555 361.900 199.500 V 193.500 C 361.900 193.445 361.855 193.400 361.800 193.400 H 358.900 C 358.800 193.400 358.900 193.500 358.900 193.400 V 186.500 V 183.500 C 358.900 183.445 358.855 183.400 358.800 183.400 H 352.800 C 352.745 183.400 352.700 183.445 352.700 183.500 V 186.400 C 352.700 186.500 352.800 186.400 352.700 186.400 H 346.900 C 346.800 186.400 346.900 186.500 346.900 186.400 V 183.500 C 346.900 183.445 346.855 183.400 346.800 183.400 H 340.800 C 340.745 183.400 340.700 183.445 340.700 183.500 V 186.400 C 340.700 186.500 340.800 186.400 340.700 186.400 H 334.900 C 334.800 186.400 334.900 186.500 334.900 186.400 V 183.500 C 334.900 183.445 334.855 183.400 334.800 183.400 H 328.800 C 328.745 183.400 328.700 183.445 328.700 183.500 V 186.400 C 328.700 186.500 328.800 186.400 328.700 186.400 H 322.900 C 322.800 186.400 322.900 186.500 322.900 186.400 V 183.500 C 322.900 183.445 322.855 183.400 322.800 183.400 H 316.800 C 316.745 183.400 316.700 183.445 316.700 183.500 V 186.400 C 316.700 186.500 316.800 186.400 316.700 186.400 H 310.900 C 310.800 186.400 310.900 186.500 310.900 186.400 V 183.500 C 310.900 183.445 310.855 183.400 310.800 183.400 H 304.800 C 304.745 183.400 304.700 183.445 304.700 183.500 V 186.400 C 304.700 186.500 304.800 186.400 304.700 186.400 H 298.900 C 298.800 186.400 298.900 186.500 298.900 186.400 V 183.500 C 298.900 183.445 298.855 183.400 298.800 183.400 H 292.800 C 292.745 183.400 292.700 183.445 292.700 183.500 V 186.400 C 292.700 186.500 292.800 186.400 292.700 186.400 H 286.900 C 286.800 186.400 286.900 186.500 286.900 186.400 V 183.500 C 286.900 183.445 286.855 183.400 286.800 183.400 H 280.800 C 280.745 183.400 280.700 183.445 280.700 183.500 V 186.400 C 280.700 186.500 280.800 186.400 280.700 186.400 H 274.900 C 274.800 186.400 274.900 186.500 274.900 186.400 V 183.500 C 274.900 183.445 274.855 183.400 274.800 183.400 H 268.800 C 268.745 183.400 268.700 183.445 268.700 183.500 V 186.400 C 268.700 186.500 268.800 186.400 268.700 186.400 H 262.900 C 262.800 186.400 262.900 186.500 262.900 186.400 V 183.500 C 262.900 183.445 262.855 183.400 262.800 183.400 H 256.800 C 256.745 183.400 256.700 183.445 256.700 183.500 V 186.400 C 256.700 186.500 256.800 186.400 256.700 186.400 H 250.900 C 250.800 186.400 250.900 186.500 250.900 186.400 V 183.500 C 250.900 183.445 250.855 183.400 250.800 183.400 H 244.800 C 244.745 183.400 244.700 183.445 244.700 183.500 V 186.500 V 193.400 C 244.700 193.500 244.800 193.400 244.700 193.400 H 241.800 C 241.745 193.400 241.700 193.445 241.700 193.500 V 199.500 C 241.700 199.555 241.745 199.600 241.800 199.600 H 244.700 C 244.800 199.600 244.700 199.500 244.700 199.600 V 205.400 C 244.700 205.500 244.800 205.400 244.700 205.400 H 241.800 C 241.745 205.400 241.700 205.445 241.700 205.500 V 211.500 C 241.700 211.555 241.745 211.600 241.800 211.600 H 244.700 C 244.800 211.600 244.700 211.500 244.700 211.600 V 217.400 C 244.700 217.500 244.800 217.400 244.700 217.400 H 241.800 C 241.745 217.400 241.700 217.445 241.700 217.500 V 223.500 C 241.700 223.555 241.745 223.600 241.800 223.600 H 244.700 C 244.800 223.600 244.700 223.500 244.700 223.600 V 230.500 V 233.500 C 244.700 233.555 244.745 233.600 244.800 233.600 Z" />
  </g>
  <g
     style="fill:none;stroke-linecap:round;stroke-linejoin:round;stroke:#ff0000;stroke-opacity:1"
     id="p-3">
    <path
       style="stroke:#ff0000;stroke-opacity:1"
       id="path4"
       stroke-width="0.20"
       stroke="rgb(0,0,0)"
       d="M 244.800 181.900 H 250.800 C 250.855 181.900 250.900 181.855 250.900 181.800 V 178.900 C 250.900 178.800 250.800 178.900 250.900 178.900 H 256.700 C 256.800 178.900 256.700 178.800 256.700 178.900 V 181.800 C 256.700 181.855 256.745 181.900 256.800 181.900 H 262.800 C 262.855 181.900 262.900 181.855 262.900 181.800 V 178.900 C 262.900 178.800 262.800 178.900 262.900 178.900 H 268.700 C 268.800 178.900 268.700 178.800 268.700 178.900 V 181.800 C 268.700 181.855 268.745 181.900 268.800 181.900 H 274.800 C 274.855 181.900 274.900 181.855 274.900 181.800 V 178.900 C 274.900 178.800 274.800 178.900 274.900 178.900 H 280.700 C 280.800 178.900 280.700 178.800 280.700 178.900 V 181.800 C 280.700 181.855 280.745 181.900 280.800 181.900 H 286.800 C 286.855 181.900 286.900 181.855 286.900 181.800 V 178.900 C 286.900 178.800 286.800 178.900 286.900 178.900 H 292.700 C 292.800 178.900 292.700 178.800 292.700 178.900 V 181.800 C 292.700 181.855 292.745 181.900 292.800 181.900 H 298.800 C 298.855 181.900 298.900 181.855 298.900 181.800 V 178.900 C 298.900 178.800 298.800 178.900 298.900 178.900 H 304.700 C 304.800 178.900 304.700 178.800 304.700 178.900 V 181.800 C 304.700 181.855 304.745 181.900 304.800 181.900 H 310.800 C 310.855 181.900 310.900 181.855 310.900 181.800 V 178.900 C 310.900 178.800 310.800 178.900 310.900 178.900 H 316.700 C 316.800 178.900 316.700 178.800 316.700 178.900 V 181.800 C 316.700 181.855 316.745 181.900 316.800 181.900 H 322.800 C 322.855 181.900 322.900 181.855 322.900 181.800 V 178.900 C 322.900 178.800 322.800 178.900 322.900 178.900 H 328.700 C 328.800 178.900 328.700 178.800 328.700 178.900 V 181.800 C 328.700 181.855 328.745 181.900 328.800 181.900 H 334.800 C 334.855 181.900 334.900 181.855 334.900 181.800 V 178.900 C 334.900 178.800 334.800 178.900 334.900 178.900 H 340.700 C 340.800 178.900 340.700 178.800 340.700 178.900 V 181.800 C 340.700 181.855 340.745 181.900 340.800 181.900 H 346.800 C 346.855 181.900 346.900 181.855 346.900 181.800 V 178.900 C 346.900 178.800 346.800 178.900 346.900 178.900 H 352.700 C 352.800 178.900 352.700 178.800 352.700 178.900 V 181.800 C 352.700 181.855 352.745 181.900 352.800 181.900 H 358.800 C 358.855 181.900 358.900 181.855 358.900 181.800 V 178.800 V 171.900 C 358.900 171.800 358.800 171.900 358.900 171.900 H 361.800 C 361.855 171.900 361.900 171.855 361.900 171.800 V 165.800 C 361.900 165.745 361.855 165.700 361.800 165.700 H 358.900 C 358.800 165.700 358.900 165.800 358.900 165.700 V 159.900 C 358.900 159.800 358.800 159.900 358.900 159.900 H 361.800 C 361.855 159.900 361.900 159.855 361.900 159.800 V 153.800 C 361.900 153.745 361.855 153.700 361.800 153.700 H 358.900 C 358.800 153.700 358.900 153.800 358.900 153.700 V 147.900 C 358.900 147.800 358.800 147.900 358.900 147.900 H 361.800 C 361.855 147.900 361.900 147.855 361.900 147.800 V 141.800 C 361.900 141.745 361.855 141.700 361.800 141.700 H 358.900 C 358.800 141.700 358.900 141.800 358.900 141.700 V 134.800 V 131.800 C 358.900 131.745 358.855 131.700 358.800 131.700 H 352.800 C 352.745 131.700 352.700 131.745 352.700 131.800 V 134.700 C 352.700 134.800 352.800 134.700 352.700 134.700 H 346.900 C 346.800 134.700 346.900 134.800 346.900 134.700 V 131.800 C 346.900 131.745 346.855 131.700 346.800 131.700 H 340.800 C 340.745 131.700 340.700 131.745 340.700 131.800 V 134.700 C 340.700 134.800 340.800 134.700 340.700 134.700 H 334.900 C 334.800 134.700 334.900 134.800 334.900 134.700 V 131.800 C 334.900 131.745 334.855 131.700 334.800 131.700 H 328.800 C 328.745 131.700 328.700 131.745 328.700 131.800 V 134.700 C 328.700 134.800 328.800 134.700 328.700 134.700 H 322.900 C 322.800 134.700 322.900 134.800 322.900 134.700 V 131.800 C 322.900 131.745 322.855 131.700 322.800 131.700 H 316.800 C 316.745 131.700 316.700 131.745 316.700 131.800 V 134.700 C 316.700 134.800 316.800 134.700 316.700 134.700 H 310.900 C 310.800 134.700 310.900 134.800 310.900 134.700 V 131.800 C 310.900 131.745 310.855 131.700 310.800 131.700 H 304.800 C 304.745 131.700 304.700 131.745 304.700 131.800 V 134.700 C 304.700 134.800 304.800 134.700 304.700 134.700 H 298.900 C 298.800 134.700 298.900 134.800 298.900 134.700 V 131.800 C 298.900 131.745 298.855 131.700 298.800 131.700 H 292.800 C 292.745 131.700 292.700 131.745 292.700 131.800 V 134.700 C 292.700 134.800 292.800 134.700 292.700 134.700 H 286.900 C 286.800 134.700 286.900 134.800 286.900 134.700 V 131.800 C 286.900 131.745 286.855 131.700 286.800 131.700 H 280.800 C 280.745 131.700 280.700 131.745 280.700 131.800 V 134.700 C 280.700 134.800 280.800 134.700 280.700 134.700 H 274.900 C 274.800 134.700 274.900 134.800 274.900 134.700 V 131.800 C 274.900 131.745 274.855 131.700 274.800 131.700 H 268.800 C 268.745 131.700 268.700 131.745 268.700 131.800 V 134.700 C 268.700 134.800 268.800 134.700 268.700 134.700 H 262.900 C 262.800 134.700 262.900 134.800 262.900 134.700 V 131.800 C 262.900 131.745 262.855 131.700 262.800 131.700 H 256.800 C 256.745 131.700 256.700 131.745 256.700 131.800 V 134.700 C 256.700 134.800 256.800 134.700 256.700 134.700 H 250.900 C 250.800 134.700 250.900 134.800 250.900 134.700 V 131.800 C 250.900 131.745 250.855 131.700 250.800 131.700 H 244.800 C 244.745 131.700 244.700 131.745 244.700 131.800 V 134.800 V 141.700 C 244.700 141.800 244.800 141.700 244.700 141.700 H 241.800 C 241.745 141.700 241.700 141.745 241.700 141.800 V 147.800 C 241.700 147.855 241.745 147.900 241.800 147.900 H 244.700 C 244.800 147.900 244.700 147.800 244.700 147.900 V 153.700 C 244.700 153.800 244.800 153.700 244.700 153.700 H 241.800 C 241.745 153.700 241.700 153.745 241.700 153.800 V 159.800 C 241.700 159.855 241.745 159.900 241.800 159.900 H 244.700 C 244.800 159.900 244.700 159.800 244.700 159.900 V 165.700 C 244.700 165.800 244.800 165.700 244.700 165.700 H 241.800 C 241.745 165.700 241.700 165.745 241.700 165.800 V 171.800 C 241.700 171.855 241.745 171.900 241.800 171.900 H 244.700 C 244.800 171.900 244.700 171.800 244.700 171.900 V 178.800 V 181.800 C 244.700 181.855 244.745 181.900 244.800 181.900 Z" />
  </g>
  <g
     style="fill:none;stroke-linecap:round;stroke-linejoin:round;stroke:#ff0000;stroke-opacity:1"
     id="p-4">
    <path
       style="stroke:#ff0000;stroke-opacity:1"
       id="path5"
       stroke-width="0.20"
       stroke="rgb(0,0,0)"
       d="M 13.100 181.900 H 20.100 C 20.155 181.900 20.200 181.855 20.200 181.800 V 178.900 C 20.200 178.800 20.100 178.900 20.200 178.900 H 26.000 C 26.100 178.900 26.000 178.800 26.000 178.900 V 181.800 C 26.000 181.855 26.045 181.900 26.100 181.900 H 32.100 C 32.155 181.900 32.200 181.855 32.200 181.800 V 178.900 C 32.200 178.800 32.100 178.900 32.200 178.900 H 38.000 C 38.100 178.900 38.000 178.800 38.000 178.900 V 181.800 C 38.000 181.855 38.045 181.900 38.100 181.900 H 44.100 C 44.155 181.900 44.200 181.855 44.200 181.800 V 178.900 C 44.200 178.800 44.100 178.900 44.200 178.900 H 50.000 C 50.100 178.900 50.000 178.800 50.000 178.900 V 181.800 C 50.000 181.855 50.045 181.900 50.100 181.900 H 56.100 C 56.155 181.900 56.200 181.855 56.200 181.800 V 178.900 C 56.200 178.800 56.100 178.900 56.200 178.900 H 62.000 C 62.100 178.900 62.000 178.800 62.000 178.900 V 181.800 C 62.000 181.855 62.045 181.900 62.100 181.900 H 68.100 C 68.155 181.900 68.200 181.855 68.200 181.800 V 178.900 C 68.200 178.800 68.100 178.900 68.200 178.900 H 74.000 C 74.100 178.900 74.000 178.800 74.000 178.900 V 181.800 C 74.000 181.855 74.045 181.900 74.100 181.900 H 80.100 C 80.155 181.900 80.200 181.855 80.200 181.800 V 178.900 C 80.200 178.800 80.100 178.900 80.200 178.900 H 86.000 C 86.100 178.900 86.000 178.800 86.000 178.900 V 181.800 C 86.000 181.855 86.045 181.900 86.100 181.900 H 92.100 C 92.155 181.900 92.200 181.855 92.200 181.800 V 178.900 C 92.200 178.800 92.100 178.900 92.200 178.900 H 98.000 C 98.100 178.900 98.000 178.800 98.000 178.900 V 181.800 C 98.000 181.855 98.045 181.900 98.100 181.900 H 104.100 C 104.155 181.900 104.200 181.855 104.200 181.800 V 178.900 C 104.200 178.800 104.100 178.900 104.200 178.900 H 110.000 C 110.100 178.900 110.000 178.800 110.000 178.900 V 181.800 C 110.000 181.855 110.045 181.900 110.100 181.900 H 116.100 C 116.155 181.900 116.200 181.855 116.200 181.800 V 178.900 C 116.200 178.800 116.100 178.900 116.200 178.900 H 122.000 C 122.100 178.900 122.000 178.800 122.000 178.900 V 181.800 C 122.000 181.855 122.045 181.900 122.100 181.900 H 128.100 C 128.155 181.900 128.200 181.855 128.200 181.800 V 178.900 C 128.200 178.800 128.100 178.900 128.200 178.900 H 134.000 C 134.100 178.900 134.000 178.800 134.000 178.900 V 181.800 C 134.000 181.855 134.045 181.900 134.100 181.900 H 140.100 C 140.155 181.900 140.200 181.855 140.200 181.800 V 178.900 C 140.200 178.800 140.100 178.900 140.200 178.900 H 146.000 C 146.100 178.900 146.000 178.800 146.000 178.900 V 181.800 C 146.000 181.855 146.045 181.900 146.100 181.900 H 152.100 C 152.155 181.900 152.200 181.855 152.200 181.800 V 178.900 C 152.200 178.800 152.100 178.900 152.200 178.900 H 158.000 C 158.100 178.900 158.000 178.800 158.000 178.900 V 181.800 C 158.000 181.855 158.045 181.900 158.100 181.900 H 164.100 C 164.155 181.900 164.200 181.855 164.200 181.800 V 178.900 C 164.200 178.800 164.100 178.900 164.200 178.900 H 170.000 C 170.100 178.900 170.000 178.800 170.000 178.900 V 181.800 C 170.000 181.855 170.045 181.900 170.100 181.900 H 176.100 C 176.155 181.900 176.200 181.855 176.200 181.800 V 178.900 C 176.200 178.800 176.100 178.900 176.200 178.900 H 182.000 C 182.100 178.900 182.000 178.800 182.000 178.900 V 181.800 C 182.000 181.855 182.045 181.900 182.100 181.900 H 188.100 C 188.155 181.900 188.200 181.855 188.200 181.800 V 178.900 C 188.200 178.800 188.100 178.900 188.200 178.900 H 194.000 C 194.100 178.900 194.000 178.800 194.000 178.900 V 181.800 C 194.000 181.855 194.045 181.900 194.100 181.900 H 200.100 C 200.155 181.900 200.200 181.855 200.200 181.800 V 178.900 C 200.200 178.800 200.100 178.900 200.200 178.900 H 206.000 C 206.100 178.900 206.000 178.800 206.000 178.900 V 181.800 C 206.000 181.855 206.045 181.900 206.100 181.900 H 212.100 C 212.155 181.900 212.200 181.855 212.200 181.800 V 178.900 C 212.200 178.800 212.100 178.900 212.200 178.900 H 218.000 C 218.100 178.900 218.000 178.800 218.000 178.900 V 181.800 C 218.000 181.855 218.045 181.900 218.100 181.900 H 224.100 C 224.155 181.900 224.200 181.855 224.200 181.800 V 178.900 C 224.200 178.800 224.100 178.900 224.200 178.900 H 230.000 C 230.100 178.900 230.000 178.800 230.000 178.900 V 181.800 C 230.000 181.855 230.045 181.900 230.100 181.900 H 237.100 H 240.100 C 240.155 181.900 240.200 181.855 240.200 181.800 V 178.800 V 171.800 C 240.200 171.745 240.155 171.700 240.100 171.700 H 237.200 C 237.100 171.700 237.200 171.800 237.200 171.700 V 165.900 C 237.200 165.800 237.100 165.900 237.200 165.900 H 240.100 C 240.155 165.900 240.200 165.855 240.200 165.800 V 159.800 C 240.200 159.745 240.155 159.700 240.100 159.700 H 237.200 C 237.100 159.700 237.200 159.800 237.200 159.700 V 153.900 C 237.200 153.800 237.100 153.900 237.200 153.900 H 240.100 C 240.155 153.900 240.200 153.855 240.200 153.800 V 147.800 C 240.200 147.745 240.155 147.700 240.100 147.700 H 237.200 C 237.100 147.700 237.200 147.800 237.200 147.700 V 141.900 C 237.200 141.800 237.100 141.900 237.200 141.900 H 240.100 C 240.155 141.900 240.200 141.855 240.200 141.800 V 134.800 V 131.800 C 240.200 131.745 240.155 131.700 240.100 131.700 H 237.100 H 230.100 C 230.045 131.700 230.000 131.745 230.000 131.800 V 134.700 C 230.000 134.800 230.100 134.700 230.000 134.700 H 224.200 C 224.100 134.700 224.200 134.800 224.200 134.700 V 131.800 C 224.200 131.745 224.155 131.700 224.100 131.700 H 218.100 C 218.045 131.700 218.000 131.745 218.000 131.800 V 134.700 C 218.000 134.800 218.100 134.700 218.000 134.700 H 212.200 C 212.100 134.700 212.200 134.800 212.200 134.700 V 131.800 C 212.200 131.745 212.155 131.700 212.100 131.700 H 206.100 C 206.045 131.700 206.000 131.745 206.000 131.800 V 134.700 C 206.000 134.800 206.100 134.700 206.000 134.700 H 200.200 C 200.100 134.700 200.200 134.800 200.200 134.700 V 131.800 C 200.200 131.745 200.155 131.700 200.100 131.700 H 194.100 C 194.045 131.700 194.000 131.745 194.000 131.800 V 134.700 C 194.000 134.800 194.100 134.700 194.000 134.700 H 188.200 C 188.100 134.700 188.200 134.800 188.200 134.700 V 131.800 C 188.200 131.745 188.155 131.700 188.100 131.700 H 182.100 C 182.045 131.700 182.000 131.745 182.000 131.800 V 134.700 C 182.000 134.800 182.100 134.700 182.000 134.700 H 176.200 C 176.100 134.700 176.200 134.800 176.200 134.700 V 131.800 C 176.200 131.745 176.155 131.700 176.100 131.700 H 170.100 C 170.045 131.700 170.000 131.745 170.000 131.800 V 134.700 C 170.000 134.800 170.100 134.700 170.000 134.700 H 164.200 C 164.100 134.700 164.200 134.800 164.200 134.700 V 131.800 C 164.200 131.745 164.155 131.700 164.100 131.700 H 158.100 C 158.045 131.700 158.000 131.745 158.000 131.800 V 134.700 C 158.000 134.800 158.100 134.700 158.000 134.700 H 152.200 C 152.100 134.700 152.200 134.800 152.200 134.700 V 131.800 C 152.200 131.745 152.155 131.700 152.100 131.700 H 146.100 C 146.045 131.700 146.000 131.745 146.000 131.800 V 134.700 C 146.000 134.800 146.100 134.700 146.000 134.700 H 140.200 C 140.100 134.700 140.200 134.800 140.200 134.700 V 131.800 C 140.200 131.745 140.155 131.700 140.100 131.700 H 134.100 C 134.045 131.700 134.000 131.745 134.000 131.800 V 134.700 C 134.000 134.800 134.100 134.700 134.000 134.700 H 128.200 C 128.100 134.700 128.200 134.800 128.200 134.700 V 131.800 C 128.200 131.745 128.155 131.700 128.100 131.700 H 122.100 C 122.045 131.700 122.000 131.745 122.000 131.800 V 134.700 C 122.000 134.800 122.100 134.700 122.000 134.700 H 116.200 C 116.100 134.700 116.200 134.800 116.200 134.700 V 131.800 C 116.200 131.745 116.155 131.700 116.100 131.700 H 110.100 C 110.045 131.700 110.000 131.745 110.000 131.800 V 134.700 C 110.000 134.800 110.100 134.700 110.000 134.700 H 104.200 C 104.100 134.700 104.200 134.800 104.200 134.700 V 131.800 C 104.200 131.745 104.155 131.700 104.100 131.700 H 98.100 C 98.045 131.700 98.000 131.745 98.000 131.800 V 134.700 C 98.000 134.800 98.100 134.700 98.000 134.700 H 92.200 C 92.100 134.700 92.200 134.800 92.200 134.700 V 131.800 C 92.200 131.745 92.155 131.700 92.100 131.700 H 86.100 C 86.045 131.700 86.000 131.745 86.000 131.800 V 134.700 C 86.000 134.800 86.100 134.700 86.000 134.700 H 80.200 C 80.100 134.700 80.200 134.800 80.200 134.700 V 131.800 C 80.200 131.745 80.155 131.700 80.100 131.700 H 74.100 C 74.045 131.700 74.000 131.745 74.000 131.800 V 134.700 C 74.000 134.800 74.100 134.700 74.000 134.700 H 68.200 C 68.100 134.700 68.200 134.800 68.200 134.700 V 131.800 C 68.200 131.745 68.155 131.700 68.100 131.700 H 62.100 C 62.045 131.700 62.000 131.745 62.000 131.800 V 134.700 C 62.000 134.800 62.100 134.700 62.000 134.700 H 56.200 C 56.100 134.700 56.200 134.800 56.200 134.700 V 131.800 C 56.200 131.745 56.155 131.700 56.100 131.700 H 50.100 C 50.045 131.700 50.000 131.745 50.000 131.800 V 134.700 C 50.000 134.800 50.100 134.700 50.000 134.700 H 44.200 C 44.100 134.700 44.200 134.800 44.200 134.700 V 131.800 C 44.200 131.745 44.155 131.700 44.100 131.700 H 38.100 C 38.045 131.700 38.000 131.745 38.000 131.800 V 134.700 C 38.000 134.800 38.100 134.700 38.000 134.700 H 32.200 C 32.100 134.700 32.200 134.800 32.200 134.700 V 131.800 C 32.200 131.745 32.155 131.700 32.100 131.700 H 26.100 C 26.045 131.700 26.000 131.745 26.000 131.800 V 134.700 C 26.000 134.800 26.100 134.700 26.000 134.700 H 20.200 C 20.100 134.700 20.200 134.800 20.200 134.700 V 131.800 C 20.200 131.745 20.155 131.700 20.100 131.700 H 13.100 H 10.100 C 10.045 131.700 10.000 131.745 10.000 131.800 V 134.800 V 141.800 C 10.000 141.855 10.045 141.900 10.100 141.900 H 13.000 C 13.100 141.900 13.000 141.800 13.000 141.900 V 147.700 C 13.000 147.800 13.100 147.700 13.000 147.700 H 10.100 C 10.045 147.700 10.000 147.745 10.000 147.800 V 153.800 C 10.000 153.855 10.045 153.900 10.100 153.900 H 13.000 C 13.100 153.900 13.000 153.800 13.000 153.900 V 159.700 C 13.000 159.800 13.100 159.700 13.000 159.700 H 10.100 C 10.045 159.700 10.000 159.745 10.000 159.800 V 165.800 C 10.000 165.855 10.045 165.900 10.100 165.900 H 13.000 C 13.100 165.900 13.000 165.800 13.000 165.900 V 171.700 C 13.000 171.800 13.100 171.700 13.000 171.700 H 10.100 C 10.045 171.700 10.000 171.745 10.000 171.800 V 178.800 V 181.800 C 10.000 181.855 10.045 181.900 10.100 181.900 H 13.100 Z" />
  </g>
  <path
     style="fill:none;stroke-linecap:round;stroke-linejoin:round;stroke:#ff0000;stroke-opacity:1"
     id="path6"
     stroke-width="0.2"
     stroke="#000000"
     d="M 13.1,127.2 H 20 c 0.1,0 0,-0.1 0,0 v 2.9 c 0,0.055 0.045,0.1 0.1,0.1 h 6 c 0.055,0 0.1,-0.045 0.1,-0.1 v -2.9 c 0,-0.1 -0.1,0 0,0 H 32 c 0.1,0 0,-0.1 0,0 v 2.9 c 0,0.055 0.045,0.1 0.1,0.1 h 6 c 0.055,0 0.1,-0.045 0.1,-0.1 v -2.9 c 0,-0.1 -0.1,0 0,0 H 44 c 0.1,0 0,-0.1 0,0 v 2.9 c 0,0.055 0.045,0.1 0.1,0.1 h 6 c 0.055,0 0.1,-0.045 0.1,-0.1 v -2.9 c 0,-0.1 -0.1,0 0,0 H 56 c 0.1,0 0,-0.1 0,0 v 2.9 c 0,0.055 0.045,0.1 0.1,0.1 h 6 c 0.055,0 0.1,-0.045 0.1,-0.1 v -2.9 c 0,-0.1 -0.1,0 0,0 H 68 c 0.1,0 0,-0.1 0,0 v 2.9 c 0,0.055 0.045,0.1 0.1,0.1 h 6 c 0.055,0 0.1,-0.045 0.1,-0.1 v -2.9 c 0,-0.1 -0.1,0 0,0 H 80 c 0.1,0 0,-0.1 0,0 v 2.9 c 0,0.055 0.045,0.1 0.1,0.1 h 6 c 0.055,0 0.1,-0.045 0.1,-0.1 v -2.9 c 0,-0.1 -0.1,0 0,0 H 92 c 0.1,0 0,-0.1 0,0 v 2.9 c 0,0.055 0.045,0.1 0.1,0.1 h 6 c 0.055,0 0.1,-0.045 0.1,-0.1 v -2.9 c 0,-0.1 -0.1,0 0,0 h 5.8 c 0.1,0 0,-0.1 0,0 v 2.9 c 0,0.055 0.045,0.1 0.1,0.1 h 6 c 0.055,0 0.1,-0.045 0.1,-0.1 v -2.9 c 0,-0.1 -0.1,0 0,0 h 5.8 c 0.1,0 0,-0.1 0,0 v 2.9 c 0,0.055 0.045,0.1 0.1,0.1 h 6 c 0.055,0 0.1,-0.045 0.1,-0.1 v -2.9 c 0,-0.1 -0.1,0 0,0 h 5.8 c 0.1,0 0,-0.1 0,0 v 2.9 c 0,0.055 0.045,0.1 0.1,0.1 h 6 c 0.055,0 0.1,-0.045 0.1,-0.1 v -2.9 c 0,-0.1 -0.1,0 0,0 h 5.8 c 0.1,0 0,-0.1 0,0 v 2.9 c 0,0.055 0.045,0.1 0.1,0.1 h 6 c 0.055,0 0.1,-0.045 0.1,-0.1 v -2.9 c 0,-0.1 -0.1,0 0,0 h 5.8 c 0.1,0 0,-0.1 0,0 v 2.9 c 0,0.055 0.045,0.1 0.1,0.1 h 6 c 0.055,0 0.1,-0.045 0.1,-0.1 v -2.9 c 0,-0.1 -0.1,0 0,0 h 5.8 c 0.1,0 0,-0.1 0,0 v 2.9 c 0,0.055 0.045,0.1 0.1,0.1 h 6 c 0.055,0 0.1,-0.045 0.1,-0.1 v -2.9 c 0,-0.1 -0.1,0 0,0 h 5.8 c 0.1,0 0,-0.1 0,0 v 2.9 c 0,0.055 0.045,0.1 0.1,0.1 h 6 c 0.055,0 0.1,-0.045 0.1,-0.1 v -2.9 c 0,-0.1 -0.1,0 0,0 h 5.8 c 0.1,0 0,-0.1 0,0 v 2.9 c 0,0.055 0.045,0.1 0.1,0.1 h 6 c 0.055,0 0.1,-0.045 0.1,-0.1 v -2.9 c 0,-0.1 -0.1,0 0,0 h 5.8 c 0.1,0 0,-0.1 0,0 v 2.9 c 0,0.055 0.045,0.1 0.1,0.1 h 6 c 0.055,0 0.1,-0.045 0.1,-0.1 v -2.9 c 0,-0.1 -0.1,0 0,0 h 5.8 c 0.1,0 0,-0.1 0,0 v 2.9 c 0,0.055 0.045,0.1 0.1,0.1 h 6 c 0.055,0 0.1,-0.045 0.1,-0.1 v -2.9 c 0,-0.1 -0.1,0 0,0 h 5.8 c 0.1,0 0,-0.1 0,0 v 2.9 c 0,0.055 0.045,0.1 0.1,0.1 h 6 c 0.055,0 0.1,-0.045 0.1,-0.1 v -2.9 c 0,-0.1 -0.1,0 0,0 h 6.9 c 0.055,0 0.1,-0.045 0.1,-0.1 v -5.9 c 0,-0.1 -0.1,0 0,0 h 2.9 c 0.055,0 0.1,-0.045 0.1,-0.1 v -6 c 0,-0.055 -0.045,-0.1 -0.1,-0.1 h -2.9 c -0.1,0 0,0.1 0,0 v -5.8 c 0,-0.1 -0.1,0 0,0 h 2.9 c 0.055,0 0.1,-0.045 0.1,-0.1 v -6 c 0,-0.055 -0.045,-0.1 -0.1,-0.1 h -2.9 c -0.1,0 0,0.1 0,0 v -5.8 c 0,-0.1 -0.1,0 0,0 h 2.9 c 0.055,0 0.1,-0.045 0.1,-0.1 v -6 c 0,-0.055 -0.045,-0.1 -0.1,-0.1 h -2.9 c -0.1,0 0,0.1 0,0 v -5.8 c 0,-0.1 -0.1,0 0,0 h 2.9 c 0.055,0 0.1,-0.045 0.1,-0.1 v -6 c 0,-0.055 -0.045,-0.1 -0.1,-0.1 h -2.9 c -0.1,0 0,0.1 0,0 v -5.8 c 0,-0.1 -0.1,0 0,0 h 2.9 c 0.055,0 0.1,-0.045 0.1,-0.1 v -6 c 0,-0.055 -0.045,-0.1 -0.1,-0.1 h -2.9 c -0.1,0 0,0.1 0,0 v -5.8 c 0,-0.1 -0.1,0 0,0 h 2.9 c 0.055,0 0.1,-0.045 0.1,-0.1 v -6 c 0,-0.055 -0.045,-0.1 -0.1,-0.1 h -2.9 c -0.1,0 0,0.1 0,0 v -5.8 c 0,-0.1 -0.1,0 0,0 h 2.9 c 0.055,0 0.1,-0.045 0.1,-0.1 v -6 c 0,-0.055 -0.045,-0.1 -0.1,-0.1 h -2.9 c -0.1,0 0,0.1 0,0 v -5.8 c 0,-0.1 -0.1,0 0,0 h 2.9 c 0.055,0 0.1,-0.045 0.1,-0.1 v -6 c 0,-0.055 -0.045,-0.1 -0.1,-0.1 h -2.9 c -0.1,0 0,0.1 0,0 v -5.8 c 0,-0.1 -0.1,0 0,0 h 2.9 c 0.055,0 0.1,-0.045 0.1,-0.1 v -6 c 0,-0.055 -0.045,-0.1 -0.1,-0.1 h -2.9 c -0.1,0 0,0.1 0,0 v -5.9 c 0,-0.055 -0.045,-0.1 -0.1,-0.1 h -6.9 c -0.1,0 0,0.1 0,0 v -2.9 c 0,-0.055 -0.045,-0.1 -0.1,-0.1 h -6 c -0.055,0 -0.1,0.045 -0.1,0.1 V 13 c 0,0.1 0.1,0 0,0 h -5.8 c -0.1,0 0,0.1 0,0 v -2.9 c 0,-0.055 -0.045,-0.1 -0.1,-0.1 h -6 c -0.055,0 -0.1,0.045 -0.1,0.1 V 13 c 0,0.1 0.1,0 0,0 h -5.8 c -0.1,0 0,0.1 0,0 v -2.9 c 0,-0.055 -0.045,-0.1 -0.1,-0.1 h -6 c -0.055,0 -0.1,0.045 -0.1,0.1 V 13 c 0,0.1 0.1,0 0,0 h -5.8 c -0.1,0 0,0.1 0,0 v -2.9 c 0,-0.055 -0.045,-0.1 -0.1,-0.1 h -6 c -0.055,0 -0.1,0.045 -0.1,0.1 V 13 c 0,0.1 0.1,0 0,0 h -5.8 c -0.1,0 0,0.1 0,0 v -2.9 c 0,-0.055 -0.045,-0.1 -0.1,-0.1 h -6 c -0.055,0 -0.1,0.045 -0.1,0.1 V 13 c 0,0.1 0.1,0 0,0 h -5.8 c -0.1,0 0,0.1 0,0 v -2.9 c 0,-0.055 -0.045,-0.1 -0.1,-0.1 h -6 c -0.055,0 -0.1,0.045 -0.1,0.1 V 13 c 0,0.1 0.1,0 0,0 h -5.8 c -0.1,0 0,0.1 0,0 v -2.9 c 0,-0.055 -0.045,-0.1 -0.1,-0.1 h -6 c -0.055,0 -0.1,0.045 -0.1,0.1 V 13 c 0,0.1 0.1,0 0,0 h -5.8 c -0.1,0 0,0.1 0,0 v -2.9 c 0,-0.055 -0.045,-0.1 -0.1,-0.1 h -6 c -0.055,0 -0.1,0.045 -0.1,0.1 V 13 c 0,0.1 0.1,0 0,0 h -5.8 c -0.1,0 0,0.1 0,0 v -2.9 c 0,-0.055 -0.045,-0.1 -0.1,-0.1 h -6 c -0.055,0 -0.1,0.045 -0.1,0.1 V 13 c 0,0.1 0.1,0 0,0 h -5.8 c -0.1,0 0,0.1 0,0 v -2.9 c 0,-0.055 -0.045,-0.1 -0.1,-0.1 h -6 c -0.055,0 -0.1,0.045 -0.1,0.1 V 13 c 0,0.1 0.1,0 0,0 h -5.8 c -0.1,0 0,0.1 0,0 v -2.9 c 0,-0.055 -0.045,-0.1 -0.1,-0.1 h -6 c -0.055,0 -0.1,0.045 -0.1,0.1 V 13 c 0,0.1 0.1,0 0,0 h -5.8 c -0.1,0 0,0.1 0,0 V 10.1 C 98.2,10.045 98.155,10 98.1,10 h -6 C 92.045,10 92,10.045 92,10.1 V 13 c 0,0.1 0.1,0 0,0 h -5.8 c -0.1,0 0,0.1 0,0 V 10.1 C 86.2,10.045 86.155,10 86.1,10 h -6 C 80.045,10 80,10.045 80,10.1 V 13 c 0,0.1 0.1,0 0,0 h -5.8 c -0.1,0 0,0.1 0,0 V 10.1 C 74.2,10.045 74.155,10 74.1,10 h -6 C 68.045,10 68,10.045 68,10.1 V 13 c 0,0.1 0.1,0 0,0 h -5.8 c -0.1,0 0,0.1 0,0 V 10.1 C 62.2,10.045 62.155,10 62.1,10 h -6 C 56.045,10 56,10.045 56,10.1 V 13 c 0,0.1 0.1,0 0,0 h -5.8 c -0.1,0 0,0.1 0,0 V 10.1 C 50.2,10.045 50.155,10 50.1,10 h -6 C 44.045,10 44,10.045 44,10.1 V 13 c 0,0.1 0.1,0 0,0 h -5.8 c -0.1,0 0,0.1 0,0 V 10.1 C 38.2,10.045 38.155,10 38.1,10 h -6 C 32.045,10 32,10.045 32,10.1 V 13 c 0,0.1 0.1,0 0,0 h -5.8 c -0.1,0 0,0.1 0,0 V 10.1 C 26.2,10.045 26.155,10 26.1,10 h -6 C 20.045,10 20,10.045 20,10.1 V 13 c 0,0.1 0.1,0 0,0 H 13.1 C 13.045,13 13,13.045 13,13.1 V 19 c 0,0.1 0.1,0 0,0 H 10.1 C 10.045,19 10,19.045 10,19.1 v 6 c 0,0.055 0.045,0.1 0.1,0.1 H 13 c 0.1,0 0,-0.1 0,0 V 31 c 0,0.1 0.1,0 0,0 H 10.1 C 10.045,31 10,31.045 10,31.1 v 6 c 0,0.055 0.045,0.1 0.1,0.1 H 13 c 0.1,0 0,-0.1 0,0 V 43 c 0,0.1 0.1,0 0,0 H 10.1 C 10.045,43 10,43.045 10,43.1 v 6 c 0,0.055 0.045,0.1 0.1,0.1 H 13 c 0.1,0 0,-0.1 0,0 V 55 c 0,0.1 0.1,0 0,0 H 10.1 C 10.045,55 10,55.045 10,55.1 v 6 c 0,0.055 0.045,0.1 0.1,0.1 H 13 c 0.1,0 0,-0.1 0,0 V 67 c 0,0.1 0.1,0 0,0 H 10.1 C 10.045,67 10,67.045 10,67.1 v 6 c 0,0.055 0.045,0.1 0.1,0.1 H 13 c 0.1,0 0,-0.1 0,0 V 79 c 0,0.1 0.1,0 0,0 H 10.1 C 10.045,79 10,79.045 10,79.1 v 6 c 0,0.055 0.045,0.1 0.1,0.1 H 13 c 0.1,0 0,-0.1 0,0 V 91 c 0,0.1 0.1,0 0,0 H 10.1 C 10.045,91 10,91.045 10,91.1 v 6 c 0,0.055 0.045,0.1 0.1,0.1 H 13 c 0.1,0 0,-0.1 0,0 v 5.8 c 0,0.1 0.1,0 0,0 h -2.9 c -0.055,0 -0.1,0.045 -0.1,0.1 v 6 c 0,0.055 0.045,0.1 0.1,0.1 H 13 c 0.1,0 0,-0.1 0,0 v 5.8 c 0,0.1 0.1,0 0,0 h -2.9 c -0.055,0 -0.1,0.045 -0.1,0.1 v 6 c 0,0.055 0.045,0.1 0.1,0.1 H 13 c 0.1,0 0,-0.1 0,0 v 5.9 c 0,0.055 0.045,0.1 0.1,0.1 z" />
  <g
     style="fill:none;stroke-linecap:round;stroke-linejoin:round;"
     id="p-6">
    <path
       style="stroke:#ff0000;stroke-opacity:1"
       id="path7"
       stroke-width="0.20"
       stroke="rgb(0,0,0)"
       d="M 244.800 127.200 H 251.700 C 251.800 127.200 251.700 127.100 251.700 127.200 V 130.100 C 251.700 130.155 251.745 130.200 251.800 130.200 H 257.800 C 257.855 130.200 257.900 130.155 257.900 130.100 V 127.200 C 257.900 127.100 257.800 127.200 257.900 127.200 H 263.700 C 263.800 127.200 263.700 127.100 263.700 127.200 V 130.100 C 263.700 130.155 263.745 130.200 263.800 130.200 H 269.800 C 269.855 130.200 269.900 130.155 269.900 130.100 V 127.200 C 269.900 127.100 269.800 127.200 269.900 127.200 H 275.700 C 275.800 127.200 275.700 127.100 275.700 127.200 V 130.100 C 275.700 130.155 275.745 130.200 275.800 130.200 H 281.800 C 281.855 130.200 281.900 130.155 281.900 130.100 V 127.200 C 281.900 127.100 281.800 127.200 281.900 127.200 H 287.700 C 287.800 127.200 287.700 127.100 287.700 127.200 V 130.100 C 287.700 130.155 287.745 130.200 287.800 130.200 H 293.800 C 293.855 130.200 293.900 130.155 293.900 130.100 V 127.200 C 293.900 127.100 293.800 127.200 293.900 127.200 H 299.700 C 299.800 127.200 299.700 127.100 299.700 127.200 V 130.100 C 299.700 130.155 299.745 130.200 299.800 130.200 H 305.800 C 305.855 130.200 305.900 130.155 305.900 130.100 V 127.200 C 305.900 127.100 305.800 127.200 305.900 127.200 H 311.700 C 311.800 127.200 311.700 127.100 311.700 127.200 V 130.100 C 311.700 130.155 311.745 130.200 311.800 130.200 H 317.800 C 317.855 130.200 317.900 130.155 317.900 130.100 V 127.200 C 317.900 127.100 317.800 127.200 317.900 127.200 H 323.700 C 323.800 127.200 323.700 127.100 323.700 127.200 V 130.100 C 323.700 130.155 323.745 130.200 323.800 130.200 H 329.800 C 329.855 130.200 329.900 130.155 329.900 130.100 V 127.200 C 329.900 127.100 329.800 127.200 329.900 127.200 H 335.700 C 335.800 127.200 335.700 127.100 335.700 127.200 V 130.100 C 335.700 130.155 335.745 130.200 335.800 130.200 H 341.800 C 341.855 130.200 341.900 130.155 341.900 130.100 V 127.200 C 341.900 127.100 341.800 127.200 341.900 127.200 H 347.700 C 347.800 127.200 347.700 127.100 347.700 127.200 V 130.100 C 347.700 130.155 347.745 130.200 347.800 130.200 H 353.800 C 353.855 130.200 353.900 130.155 353.900 130.100 V 127.200 C 353.900 127.100 353.800 127.200 353.900 127.200 H 359.700 C 359.800 127.200 359.700 127.100 359.700 127.200 V 130.100 C 359.700 130.155 359.745 130.200 359.800 130.200 H 365.800 C 365.855 130.200 365.900 130.155 365.900 130.100 V 127.200 C 365.900 127.100 365.800 127.200 365.900 127.200 H 371.700 C 371.800 127.200 371.700 127.100 371.700 127.200 V 130.100 C 371.700 130.155 371.745 130.200 371.800 130.200 H 377.800 C 377.855 130.200 377.900 130.155 377.900 130.100 V 127.200 C 377.900 127.100 377.800 127.200 377.900 127.200 H 383.700 C 383.800 127.200 383.700 127.100 383.700 127.200 V 130.100 C 383.700 130.155 383.745 130.200 383.800 130.200 H 389.800 C 389.855 130.200 389.900 130.155 389.900 130.100 V 127.200 C 389.900 127.100 389.800 127.200 389.900 127.200 H 395.700 C 395.800 127.200 395.700 127.100 395.700 127.200 V 130.100 C 395.700 130.155 395.745 130.200 395.800 130.200 H 401.800 C 401.855 130.200 401.900 130.155 401.900 130.100 V 127.200 C 401.900 127.100 401.800 127.200 401.900 127.200 H 407.700 C 407.800 127.200 407.700 127.100 407.700 127.200 V 130.100 C 407.700 130.155 407.745 130.200 407.800 130.200 H 413.800 C 413.855 130.200 413.900 130.155 413.900 130.100 V 127.200 C 413.900 127.100 413.800 127.200 413.900 127.200 H 419.700 C 419.800 127.200 419.700 127.100 419.700 127.200 V 130.100 C 419.700 130.155 419.745 130.200 419.800 130.200 H 425.800 C 425.855 130.200 425.900 130.155 425.900 130.100 V 127.200 C 425.900 127.100 425.800 127.200 425.900 127.200 H 431.700 C 431.800 127.200 431.700 127.100 431.700 127.200 V 130.100 C 431.700 130.155 431.745 130.200 431.800 130.200 H 437.800 C 437.855 130.200 437.900 130.155 437.900 130.100 V 127.200 C 437.900 127.100 437.800 127.200 437.900 127.200 H 443.700 C 443.800 127.200 443.700 127.100 443.700 127.200 V 130.100 C 443.700 130.155 443.745 130.200 443.800 130.200 H 449.800 C 449.855 130.200 449.900 130.155 449.900 130.100 V 127.200 C 449.900 127.100 449.800 127.200 449.900 127.200 H 455.700 C 455.800 127.200 455.700 127.100 455.700 127.200 V 130.100 C 455.700 130.155 455.745 130.200 455.800 130.200 H 461.800 C 461.855 130.200 461.900 130.155 461.900 130.100 V 127.200 C 461.900 127.100 461.800 127.200 461.900 127.200 H 468.800 C 468.855 127.200 468.900 127.155 468.900 127.100 V 121.200 C 468.900 121.100 468.800 121.200 468.900 121.200 H 471.800 C 471.855 121.200 471.900 121.155 471.900 121.100 V 115.100 C 471.900 115.045 471.855 115.000 471.800 115.000 H 468.900 C 468.800 115.000 468.900 115.100 468.900 115.000 V 109.200 C 468.900 109.100 468.800 109.200 468.900 109.200 H 471.800 C 471.855 109.200 471.900 109.155 471.900 109.100 V 103.100 C 471.900 103.045 471.855 103.000 471.800 103.000 H 468.900 C 468.800 103.000 468.900 103.100 468.900 103.000 V 97.200 C 468.900 97.100 468.800 97.200 468.900 97.200 H 471.800 C 471.855 97.200 471.900 97.155 471.900 97.100 V 91.100 C 471.900 91.045 471.855 91.000 471.800 91.000 H 468.900 C 468.800 91.000 468.900 91.100 468.900 91.000 V 85.200 C 468.900 85.100 468.800 85.200 468.900 85.200 H 471.800 C 471.855 85.200 471.900 85.155 471.900 85.100 V 79.100 C 471.900 79.045 471.855 79.000 471.800 79.000 H 468.900 C 468.800 79.000 468.900 79.100 468.900 79.000 V 73.200 C 468.900 73.100 468.800 73.200 468.900 73.200 H 471.800 C 471.855 73.200 471.900 73.155 471.900 73.100 V 67.100 C 471.900 67.045 471.855 67.000 471.800 67.000 H 468.900 C 468.800 67.000 468.900 67.100 468.900 67.000 V 61.200 C 468.900 61.100 468.800 61.200 468.900 61.200 H 471.800 C 471.855 61.200 471.900 61.155 471.900 61.100 V 55.100 C 471.900 55.045 471.855 55.000 471.800 55.000 H 468.900 C 468.800 55.000 468.900 55.100 468.900 55.000 V 49.200 C 468.900 49.100 468.800 49.200 468.900 49.200 H 471.800 C 471.855 49.200 471.900 49.155 471.900 49.100 V 43.100 C 471.900 43.045 471.855 43.000 471.800 43.000 H 468.900 C 468.800 43.000 468.900 43.100 468.900 43.000 V 37.200 C 468.900 37.100 468.800 37.200 468.900 37.200 H 471.800 C 471.855 37.200 471.900 37.155 471.900 37.100 V 31.100 C 471.900 31.045 471.855 31.000 471.800 31.000 H 468.900 C 468.800 31.000 468.900 31.100 468.900 31.000 V 25.200 C 468.900 25.100 468.800 25.200 468.900 25.200 H 471.800 C 471.855 25.200 471.900 25.155 471.900 25.100 V 19.100 C 471.900 19.045 471.855 19.000 471.800 19.000 H 468.900 C 468.800 19.000 468.900 19.100 468.900 19.000 V 13.100 C 468.900 13.045 468.855 13.000 468.800 13.000 H 461.900 C 461.800 13.000 461.900 13.100 461.900 13.000 V 10.100 C 461.900 10.045 461.855 10.000 461.800 10.000 H 455.800 C 455.745 10.000 455.700 10.045 455.700 10.100 V 13.000 C 455.700 13.100 455.800 13.000 455.700 13.000 H 449.900 C 449.800 13.000 449.900 13.100 449.900 13.000 V 10.100 C 449.900 10.045 449.855 10.000 449.800 10.000 H 443.800 C 443.745 10.000 443.700 10.045 443.700 10.100 V 13.000 C 443.700 13.100 443.800 13.000 443.700 13.000 H 437.900 C 437.800 13.000 437.900 13.100 437.900 13.000 V 10.100 C 437.900 10.045 437.855 10.000 437.800 10.000 H 431.800 C 431.745 10.000 431.700 10.045 431.700 10.100 V 13.000 C 431.700 13.100 431.800 13.000 431.700 13.000 H 425.900 C 425.800 13.000 425.900 13.100 425.900 13.000 V 10.100 C 425.900 10.045 425.855 10.000 425.800 10.000 H 419.800 C 419.745 10.000 419.700 10.045 419.700 10.100 V 13.000 C 419.700 13.100 419.800 13.000 419.700 13.000 H 413.900 C 413.800 13.000 413.900 13.100 413.900 13.000 V 10.100 C 413.900 10.045 413.855 10.000 413.800 10.000 H 407.800 C 407.745 10.000 407.700 10.045 407.700 10.100 V 13.000 C 407.700 13.100 407.800 13.000 407.700 13.000 H 401.900 C 401.800 13.000 401.900 13.100 401.900 13.000 V 10.100 C 401.900 10.045 401.855 10.000 401.800 10.000 H 395.800 C 395.745 10.000 395.700 10.045 395.700 10.100 V 13.000 C 395.700 13.100 395.800 13.000 395.700 13.000 H 389.900 C 389.800 13.000 389.900 13.100 389.900 13.000 V 10.100 C 389.900 10.045 389.855 10.000 389.800 10.000 H 383.800 C 383.745 10.000 383.700 10.045 383.700 10.100 V 13.000 C 383.700 13.100 383.800 13.000 383.700 13.000 H 377.900 C 377.800 13.000 377.900 13.100 377.900 13.000 V 10.100 C 377.900 10.045 377.855 10.000 377.800 10.000 H 371.800 C 371.745 10.000 371.700 10.045 371.700 10.100 V 13.000 C 371.700 13.100 371.800 13.000 371.700 13.000 H 365.900 C 365.800 13.000 365.900 13.100 365.900 13.000 V 10.100 C 365.900 10.045 365.855 10.000 365.800 10.000 H 359.800 C 359.745 10.000 359.700 10.045 359.700 10.100 V 13.000 C 359.700 13.100 359.800 13.000 359.700 13.000 H 353.900 C 353.800 13.000 353.900 13.100 353.900 13.000 V 10.100 C 353.900 10.045 353.855 10.000 353.800 10.000 H 347.800 C 347.745 10.000 347.700 10.045 347.700 10.100 V 13.000 C 347.700 13.100 347.800 13.000 347.700 13.000 H 341.900 C 341.800 13.000 341.900 13.100 341.900 13.000 V 10.100 C 341.900 10.045 341.855 10.000 341.800 10.000 H 335.800 C 335.745 10.000 335.700 10.045 335.700 10.100 V 13.000 C 335.700 13.100 335.800 13.000 335.700 13.000 H 329.900 C 329.800 13.000 329.900 13.100 329.900 13.000 V 10.100 C 329.900 10.045 329.855 10.000 329.800 10.000 H 323.800 C 323.745 10.000 323.700 10.045 323.700 10.100 V 13.000 C 323.700 13.100 323.800 13.000 323.700 13.000 H 317.900 C 317.800 13.000 317.900 13.100 317.900 13.000 V 10.100 C 317.900 10.045 317.855 10.000 317.800 10.000 H 311.800 C 311.745 10.000 311.700 10.045 311.700 10.100 V 13.000 C 311.700 13.100 311.800 13.000 311.700 13.000 H 305.900 C 305.800 13.000 305.900 13.100 305.900 13.000 V 10.100 C 305.900 10.045 305.855 10.000 305.800 10.000 H 299.800 C 299.745 10.000 299.700 10.045 299.700 10.100 V 13.000 C 299.700 13.100 299.800 13.000 299.700 13.000 H 293.900 C 293.800 13.000 293.900 13.100 293.900 13.000 V 10.100 C 293.900 10.045 293.855 10.000 293.800 10.000 H 287.800 C 287.745 10.000 287.700 10.045 287.700 10.100 V 13.000 C 287.700 13.100 287.800 13.000 287.700 13.000 H 281.900 C 281.800 13.000 281.900 13.100 281.900 13.000 V 10.100 C 281.900 10.045 281.855 10.000 281.800 10.000 H 275.800 C 275.745 10.000 275.700 10.045 275.700 10.100 V 13.000 C 275.700 13.100 275.800 13.000 275.700 13.000 H 269.900 C 269.800 13.000 269.900 13.100 269.900 13.000 V 10.100 C 269.900 10.045 269.855 10.000 269.800 10.000 H 263.800 C 263.745 10.000 263.700 10.045 263.700 10.100 V 13.000 C 263.700 13.100 263.800 13.000 263.700 13.000 H 257.900 C 257.800 13.000 257.900 13.100 257.900 13.000 V 10.100 C 257.900 10.045 257.855 10.000 257.800 10.000 H 251.800 C 251.745 10.000 251.700 10.045 251.700 10.100 V 13.000 C 251.700 13.100 251.800 13.000 251.700 13.000 H 244.800 C 244.745 13.000 244.700 13.045 244.700 13.100 V 19.000 C 244.700 19.100 244.800 19.000 244.700 19.000 H 241.800 C 241.745 19.000 241.700 19.045 241.700 19.100 V 25.100 C 241.700 25.155 241.745 25.200 241.800 25.200 H 244.700 C 244.800 25.200 244.700 25.100 244.700 25.200 V 31.000 C 244.700 31.100 244.800 31.000 244.700 31.000 H 241.800 C 241.745 31.000 241.700 31.045 241.700 31.100 V 37.100 C 241.700 37.155 241.745 37.200 241.800 37.200 H 244.700 C 244.800 37.200 244.700 37.100 244.700 37.200 V 43.000 C 244.700 43.100 244.800 43.000 244.700 43.000 H 241.800 C 241.745 43.000 241.700 43.045 241.700 43.100 V 49.100 C 241.700 49.155 241.745 49.200 241.800 49.200 H 244.700 C 244.800 49.200 244.700 49.100 244.700 49.200 V 55.000 C 244.700 55.100 244.800 55.000 244.700 55.000 H 241.800 C 241.745 55.000 241.700 55.045 241.700 55.100 V 61.100 C 241.700 61.155 241.745 61.200 241.800 61.200 H 244.700 C 244.800 61.200 244.700 61.100 244.700 61.200 V 67.000 C 244.700 67.100 244.800 67.000 244.700 67.000 H 241.800 C 241.745 67.000 241.700 67.045 241.700 67.100 V 73.100 C 241.700 73.155 241.745 73.200 241.800 73.200 H 244.700 C 244.800 73.200 244.700 73.100 244.700 73.200 V 79.000 C 244.700 79.100 244.800 79.000 244.700 79.000 H 241.800 C 241.745 79.000 241.700 79.045 241.700 79.100 V 85.100 C 241.700 85.155 241.745 85.200 241.800 85.200 H 244.700 C 244.800 85.200 244.700 85.100 244.700 85.200 V 91.000 C 244.700 91.100 244.800 91.000 244.700 91.000 H 241.800 C 241.745 91.000 241.700 91.045 241.700 91.100 V 97.100 C 241.700 97.155 241.745 97.200 241.800 97.200 H 244.700 C 244.800 97.200 244.700 97.100 244.700 97.200 V 103.000 C 244.700 103.100 244.800 103.000 244.700 103.000 H 241.800 C 241.745 103.000 241.700 103.045 241.700 103.100 V 109.100 C 241.700 109.155 241.745 109.200 241.800 109.200 H 244.700 C 244.800 109.200 244.700 109.100 244.700 109.200 V 115.000 C 244.700 115.100 244.800 115.000 244.700 115.000 H 241.800 C 241.745 115.000 241.700 115.045 241.700 115.100 V 121.100 C 241.700 121.155 241.745 121.200 241.800 121.200 H 244.700 C 244.800 121.200 244.700 121.100 244.700 121.200 V 127.100 C 244.700 127.155 244.745 127.200 244.800 127.200 Z" />
  </g>
  <circle
     r="15.353116"
     cy="38.995834"
     cx="69.276482"
     id="path8-0"
     style="fill:none;fill-opacity:0.871716;stroke:#ff0000;stroke-width:0.293767;stroke-opacity:1" />
  <circle
     r="12.876807"
     cy="105.61053"
     cx="68.704895"
     id="path8-0-45"
     style="fill:none;fill-opacity:0.871716;stroke:#ff0000;stroke-width:0.246386;stroke-opacity:1" />
  <circle
     r="12.876807"
     cy="105.61053"
     cx="183.32074"
     id="path8-0-45-5"
     style="fill:none;fill-opacity:0.871716;stroke:#ff0000;stroke-width:0.246386;stroke-opacity:1" />
  <circle
     r="15.353116"
     cy="61.941238"
     cx="39.276493"
     id="path8"
     style="fill:none;fill-opacity:0.871716;stroke:#ff0000;stroke-width:0.293767;stroke-opacity:1" />
  <circle
     r="15.353116"
     cy="61.941238"
     cx="99.276489"
     id="path8-9"
     style="fill:none;fill-opacity:0.871716;stroke:#ff0000;stroke-width:0.293767;stroke-opacity:1" />
  <circle
     r="15.353116"
     cy="38.995834"
     cx="182.93315"
     id="path8-0-4"
     style="fill:none;fill-opacity:0.871716;stroke:#ff0000;stroke-width:0.293768;stroke-opacity:1" />
  <circle
     r="15.353116"
     cy="61.941238"
     cx="152.9332"
     id="path8-8"
     style="fill:none;fill-opacity:0.871716;stroke:#ff0000;stroke-width:0.293767;stroke-opacity:1" />
  <circle
     r="15.353116"
     cy="61.941238"
     cx="212.9332"
     id="path8-9-2"
     style="fill:none;fill-opacity:0.871716;stroke:#ff0000;stroke-width:0.293767;stroke-opacity:1" />
  <rect
     y="153.65958"
     x="177.04384"
     height="9.850194"
     width="19.850195"
     id="rect8"
     style="fill:none;fill-opacity:0.871716;stroke:#ff0000;stroke-width:0.149806;stroke-opacity:1" />
  <rect
     y="153.65958"
     x="56.679386"
     height="9.850194"
     width="19.850195"
     id="rect8-1"
     style="fill:none;fill-opacity:0.871716;stroke:#ff0000;stroke-width:0.149806;stroke-opacity:1" />
</svg>
